<svg height="512pt" viewBox="0 -12 512.00101 512" width="512pt" xmlns="http://www.w3.org/2000/svg"><path d="m240.796875 265.023438h-60.042969v186.472656l60.042969-31.566406zm0 0"/><path d="m398.238281 307.175781 43.242188-42.152343h-79.847657v202.449218l36.496094 19.1875c10.886719 5.722656 23.613282-3.523437 21.53125-15.644531l-25.792968-150.390625c-.84375-4.929688.789062-9.960938 4.371093-13.449219zm0 0"/><path d="m331.238281 265.023438h-60.046875v154.902343l60.046875 31.566407zm0 0"/><path d="m150.355469 265.023438h-79.835938l43.242188 42.152343c3.582031 3.492188 5.214843 8.519531 4.371093 13.453125l-25.792968 150.386719c-2.082032 12.121094 10.644531 21.367187 21.53125 15.644531l36.488281-19.183594v-202.453124zm0 0"/><path d="m336.835938 145.101562-67.527344-136.828124c-5.445313-11.03125-21.171875-11.03125-26.617188 0l-67.527344 136.828124c-2.214843 4.484376-6.496093 7.59375-11.445312 8.3125l-150.996094 21.941407c-12.171875 1.769531-17.035156 16.726562-8.226562 25.3125l34.839844 33.960937h433.328124l34.839844-33.960937c8.808594-8.585938 3.945313-23.542969-8.226562-25.3125l-151-21.941407c-4.949219-.71875-9.226563-3.828124-11.441406-8.3125zm-266.339844 66.292969c-8.519532 0-14.828125-6.964843-15.199219-15.199219-.367187-8.207031 7.25-15.199218 15.199219-15.199218 8.519531 0 14.828125 6.964844 15.195312 15.199218.371094 8.207032-7.246094 15.199219-15.195312 15.199219zm61.832031 0c-8.519531 0-14.828125-6.964843-15.199219-15.199219-.367187-8.207031 7.25-15.199218 15.199219-15.199218 8.519531 0 14.828125 6.964844 15.199219 15.199218.367187 8.207032-7.25 15.199219-15.199219 15.199219zm123.667969-151.75c8.519531 0 14.828125 6.960938 15.195312 15.195313.371094 8.207031-7.246094 15.199218-15.195312 15.199218-8.519532 0-14.828125-6.964843-15.199219-15.199218-.367187-8.207032 7.25-15.195313 15.199219-15.195313zm-61.832032 151.75c-8.523437 0-14.832031-6.964843-15.199218-15.199219-.367188-8.207031 7.25-15.199218 15.199218-15.199218 8.519532 0 14.828126 6.964844 15.195313 15.199218.367187 8.207032-7.246094 15.199219-15.195313 15.199219zm31.546876-59.941406c-8.519532 0-14.832032-6.964844-15.199219-15.199219-.367188-8.207031 7.25-15.195312 15.199219-15.195312 8.519531 0 14.828124 6.960937 15.195312 15.195312.367188 8.207032-7.246094 15.199219-15.195312 15.199219zm30.285156 59.941406c-8.519532 0-14.828125-6.964843-15.199219-15.199219-.367187-8.207031 7.25-15.199218 15.199219-15.199218 8.519531 0 14.828125 6.964844 15.195312 15.199218.371094 8.207032-7.246094 15.199219-15.195312 15.199219zm30.285156-59.941406c-8.519531 0-14.828125-6.964844-15.199219-15.199219-.367187-8.207031 7.25-15.195312 15.199219-15.195312 8.519531 0 14.828125 6.960937 15.199219 15.195312.367187 8.207032-7.25 15.199219-15.199219 15.199219zm31.546875 59.941406c-8.519531 0-14.828125-6.964843-15.195313-15.199219-.371093-8.207031 7.246094-15.199218 15.195313-15.199218 8.519531 0 14.828125 6.964844 15.199219 15.199218.367187 8.207032-7.25 15.199219-15.199219 15.199219zm123.667969-30.398437c8.519531 0 14.828125 6.964844 15.195312 15.199218.371094 8.207032-7.246094 15.199219-15.195312 15.199219-8.519532 0-14.828125-6.964843-15.199219-15.199219-.367187-8.207031 7.25-15.199218 15.199219-15.199218zm-61.832032 0c8.519532 0 14.828126 6.964844 15.195313 15.199218.367187 8.207032-7.246094 15.199219-15.195313 15.199219-8.519531 0-14.832031-6.964843-15.199218-15.199219-.367188-8.207031 7.25-15.199218 15.199218-15.199218zm0 0"/></svg>